<svg width="40" height="40" fill="none" xmlns="http://www.w3.org/2000/svg"><g clip-path="url('#clip0_15_353')"><path fill-rule="evenodd" clip-rule="evenodd" d="M13.715 0c-2.257 0-4.42.896-6.016 2.492L0 10.19v3.524c0 2.49 1.07 4.73 2.774 6.285A8.485 8.485 0 0 0 0 26.285v3.524l7.699 7.7A8.507 8.507 0 0 0 20 37.225a8.508 8.508 0 0 0 12.301.282L40 29.81v-3.524c0-2.49-1.07-4.73-2.774-6.285A8.485 8.485 0 0 0 40 13.715V10.19l-7.699-7.7A8.508 8.508 0 0 0 20 2.775 8.485 8.485 0 0 0 13.715 0Zm12.044 20a8.528 8.528 0 0 1-.282-.27L20 14.254l-5.477 5.476a8.528 8.528 0 0 1-.282.27c.096.087.19.177.282.27L20 25.746l5.477-5.476c.092-.093.186-.183.282-.27Zm-3.537 9.81v1.682a4.063 4.063 0 0 0 6.936 2.873l6.398-6.397v-1.683a4.063 4.063 0 0 0-6.937-2.873l-6.397 6.397Zm-4.444 0-6.397-6.398a4.063 4.063 0 0 0-6.937 2.873v1.683l6.397 6.397a4.063 4.063 0 0 0 6.937-2.873V29.81Zm0-21.302v1.683l-6.397 6.397a4.063 4.063 0 0 1-6.937-2.873v-1.683l6.397-6.397a4.063 4.063 0 0 1 6.937 2.873Zm10.841 8.08-6.397-6.397V8.508a4.063 4.063 0 0 1 6.936-2.873l6.398 6.397v1.683a4.063 4.063 0 0 1-6.937 2.873Z" fill="#E0B100"/></g><defs><clipPath id="clip0_15_353"><path fill="#fff" d="M0 0h40v40H0z"/></clipPath></defs></svg>