<svg width="24" height="24" fill="none" xmlns="http://www.w3.org/2000/svg"><path d="M12 12c-1.375 0-2.552-.49-3.531-1.469C7.489 9.552 7 8.375 7 7s.49-2.552 1.469-3.531C9.448 2.489 10.625 2 12 2s2.552.49 3.531 1.469C16.511 4.448 17 5.625 17 7s-.49 2.552-1.469 3.531C14.552 11.511 13.375 12 12 12ZM2 22v-3.5c0-.708.183-1.36.547-1.954A3.642 3.642 0 0 1 4 15.188a18.583 18.583 0 0 1 3.938-1.454A17.131 17.131 0 0 1 12 13.25c1.375 0 2.73.162 4.063.485 1.333.323 2.645.808 3.937 1.453a3.649 3.649 0 0 1 1.454 1.36c.365.594.547 1.245.546 1.952V22H2Z" fill="#F5F5F5"/></svg>