<svg width="41" height="40" fill="none" xmlns="http://www.w3.org/2000/svg"><rect x="1.167" y=".5" width="39" height="39" rx="19.5" stroke="#E0B100"/><path d="m14.139 16.39 3.194.922 3.512-2.55-5.04.144a.289.289 0 0 0-.138.044l-1.595.917a.283.283 0 0 0 .067.522Z" fill="#E0B100"/><path d="m29.845 13.534-3.5-.756a2.099 2.099 0 0 0-1.706.372l-10.572 7.684-2.54-.111a.694.694 0 0 0-.46 1.233l2.472 1.961a.305.305 0 0 0 .294.05c.706-.272 3.334-1.667 6.44-3.372l.622 6.394a.306.306 0 0 0 .5.206l1.388-1.156a.423.423 0 0 0 .145-.25l1.316-7.383a894.73 894.73 0 0 0 5.84-3.272.861.861 0 0 0-.24-1.6Z" fill="#E0B100"/></svg>